<svg xmlns="http://www.w3.org/2000/svg" width="1497" height="933" style="cursor: move;"><g><path class="link" marker-end="" d="M588.5,376.5, 768.5,356.5" style="stroke-width: 0.255907; stroke-opacity: 1; stroke: rgb(80, 80, 80); fill: none;"></path><path class="link" marker-end="" d="M588.5,376.5, 768.5,396.5" style="stroke-width: 1.01888; stroke-opacity: 1; stroke: rgb(80, 80, 80); fill: none;"></path><path class="link" marker-end="" d="M588.5,376.5, 768.5,436.5" style="stroke-width: 0.479697; stroke-opacity: 1; stroke: rgb(80, 80, 80); fill: none;"></path><path class="link" marker-end="" d="M588.5,376.5, 768.5,476.5" style="stroke-width: 0.22353; stroke-opacity: 1; stroke: rgb(80, 80, 80); fill: none;"></path><path class="link" marker-end="" d="M588.5,376.5, 768.5,516.5" style="stroke-width: 0.13244; stroke-opacity: 1; stroke: rgb(80, 80, 80); fill: none;"></path><path class="link" marker-end="" d="M588.5,376.5, 768.5,556.5" style="stroke-width: 0.662877; stroke-opacity: 1; stroke: rgb(80, 80, 80); fill: none;"></path><path class="link" marker-end="" d="M588.5,376.5, 768.5,596.5" style="stroke-width: 0.567746; stroke-opacity: 1; stroke: rgb(80, 80, 80); fill: none;"></path><path class="link" marker-end="" d="M588.5,416.5, 768.5,356.5" style="stroke-width: 0.634504; stroke-opacity: 1; stroke: rgb(80, 80, 80); fill: none;"></path><path class="link" marker-end="" d="M588.5,416.5, 768.5,396.5" style="stroke-width: 0.387128; stroke-opacity: 1; stroke: rgb(80, 80, 80); fill: none;"></path><path class="link" marker-end="" d="M588.5,416.5, 768.5,436.5" style="stroke-width: 0.206285; stroke-opacity: 1; stroke: rgb(80, 80, 80); fill: none;"></path><path class="link" marker-end="" d="M588.5,416.5, 768.5,476.5" style="stroke-width: 0.963211; stroke-opacity: 1; stroke: rgb(80, 80, 80); fill: none;"></path><path class="link" marker-end="" d="M588.5,416.5, 768.5,516.5" style="stroke-width: 1.05925; stroke-opacity: 1; stroke: rgb(80, 80, 80); fill: none;"></path><path class="link" marker-end="" d="M588.5,416.5, 768.5,556.5" style="stroke-width: 0.582979; stroke-opacity: 1; stroke: rgb(80, 80, 80); fill: none;"></path><path class="link" marker-end="" d="M588.5,416.5, 768.5,596.5" style="stroke-width: 0.32665; stroke-opacity: 1; stroke: rgb(80, 80, 80); fill: none;"></path><path class="link" marker-end="" d="M588.5,456.5, 768.5,356.5" style="stroke-width: 0.597298; stroke-opacity: 1; stroke: rgb(80, 80, 80); fill: none;"></path><path class="link" marker-end="" d="M588.5,456.5, 768.5,396.5" style="stroke-width: 0.2404; stroke-opacity: 1; stroke: rgb(80, 80, 80); fill: none;"></path><path class="link" marker-end="" d="M588.5,456.5, 768.5,436.5" style="stroke-width: 0.893082; stroke-opacity: 1; stroke: rgb(80, 80, 80); fill: none;"></path><path class="link" marker-end="" d="M588.5,456.5, 768.5,476.5" style="stroke-width: 0.903288; stroke-opacity: 1; stroke: rgb(80, 80, 80); fill: none;"></path><path class="link" marker-end="" d="M588.5,456.5, 768.5,516.5" style="stroke-width: 0.931119; stroke-opacity: 1; stroke: rgb(80, 80, 80); fill: none;"></path><path class="link" marker-end="" d="M588.5,456.5, 768.5,556.5" style="stroke-width: 0.990121; stroke-opacity: 1; stroke: rgb(80, 80, 80); fill: none;"></path><path class="link" marker-end="" d="M588.5,456.5, 768.5,596.5" style="stroke-width: 0.975178; stroke-opacity: 1; stroke: rgb(80, 80, 80); fill: none;"></path><path class="link" marker-end="" d="M588.5,496.5, 768.5,356.5" style="stroke-width: 0.108487; stroke-opacity: 1; stroke: rgb(80, 80, 80); fill: none;"></path><path class="link" marker-end="" d="M588.5,496.5, 768.5,396.5" style="stroke-width: 0.266898; stroke-opacity: 1; stroke: rgb(80, 80, 80); fill: none;"></path><path class="link" marker-end="" d="M588.5,496.5, 768.5,436.5" style="stroke-width: 0.391742; stroke-opacity: 1; stroke: rgb(80, 80, 80); fill: none;"></path><path class="link" marker-end="" d="M588.5,496.5, 768.5,476.5" style="stroke-width: 0.829468; stroke-opacity: 1; stroke: rgb(80, 80, 80); fill: none;"></path><path class="link" marker-end="" d="M588.5,496.5, 768.5,516.5" style="stroke-width: 0.889735; stroke-opacity: 1; stroke: rgb(80, 80, 80); fill: none;"></path><path class="link" marker-end="" d="M588.5,496.5, 768.5,556.5" style="stroke-width: 0.222983; stroke-opacity: 1; stroke: rgb(80, 80, 80); fill: none;"></path><path class="link" marker-end="" d="M588.5,496.5, 768.5,596.5" style="stroke-width: 0.605274; stroke-opacity: 1; stroke: rgb(80, 80, 80); fill: none;"></path><path class="link" marker-end="" d="M588.5,536.5, 768.5,356.5" style="stroke-width: 1.04515; stroke-opacity: 1; stroke: rgb(80, 80, 80); fill: none;"></path><path class="link" marker-end="" d="M588.5,536.5, 768.5,396.5" style="stroke-width: 0.515772; stroke-opacity: 1; stroke: rgb(80, 80, 80); fill: none;"></path><path class="link" marker-end="" d="M588.5,536.5, 768.5,436.5" style="stroke-width: 0.390533; stroke-opacity: 1; stroke: rgb(80, 80, 80); fill: none;"></path><path class="link" marker-end="" d="M588.5,536.5, 768.5,476.5" style="stroke-width: 0.584214; stroke-opacity: 1; stroke: rgb(80, 80, 80); fill: none;"></path><path class="link" marker-end="" d="M588.5,536.5, 768.5,516.5" style="stroke-width: 0.229725; stroke-opacity: 1; stroke: rgb(80, 80, 80); fill: none;"></path><path class="link" marker-end="" d="M588.5,536.5, 768.5,556.5" style="stroke-width: 0.994656; stroke-opacity: 1; stroke: rgb(80, 80, 80); fill: none;"></path><path class="link" marker-end="" d="M588.5,536.5, 768.5,596.5" style="stroke-width: 0.973695; stroke-opacity: 1; stroke: rgb(80, 80, 80); fill: none;"></path><path class="link" marker-end="" d="M768.5,316.5, 948.5,436.5" style="stroke-width: 0.233544; stroke-opacity: 1; stroke: rgb(80, 80, 80); fill: none;"></path><path class="link" marker-end="" d="M768.5,356.5, 948.5,436.5" style="stroke-width: 0.352233; stroke-opacity: 1; stroke: rgb(80, 80, 80); fill: none;"></path><path class="link" marker-end="" d="M768.5,396.5, 948.5,436.5" style="stroke-width: 0.872507; stroke-opacity: 1; stroke: rgb(80, 80, 80); fill: none;"></path><path class="link" marker-end="" d="M768.5,436.5, 948.5,436.5" style="stroke-width: 0.332892; stroke-opacity: 1; stroke: rgb(80, 80, 80); fill: none;"></path><path class="link" marker-end="" d="M768.5,476.5, 948.5,436.5" style="stroke-width: 1.04652; stroke-opacity: 1; stroke: rgb(80, 80, 80); fill: none;"></path><path class="link" marker-end="" d="M768.5,516.5, 948.5,436.5" style="stroke-width: 0.844169; stroke-opacity: 1; stroke: rgb(80, 80, 80); fill: none;"></path><path class="link" marker-end="" d="M768.5,556.5, 948.5,436.5" style="stroke-width: 0.941844; stroke-opacity: 1; stroke: rgb(80, 80, 80); fill: none;"></path><path class="link" marker-end="" d="M768.5,596.5, 948.5,436.5" style="stroke-width: 0.965978; stroke-opacity: 1; stroke: rgb(80, 80, 80); fill: none;"></path><path class="link" marker-end="" d="M768.5,316.5, 948.5,476.5" style="stroke-width: 0.738191; stroke-opacity: 1; stroke: rgb(80, 80, 80); fill: none;"></path><path class="link" marker-end="" d="M768.5,356.5, 948.5,476.5" style="stroke-width: 0.686061; stroke-opacity: 1; stroke: rgb(80, 80, 80); fill: none;"></path><path class="link" marker-end="" d="M768.5,396.5, 948.5,476.5" style="stroke-width: 0.630998; stroke-opacity: 1; stroke: rgb(80, 80, 80); fill: none;"></path><path class="link" marker-end="" d="M768.5,436.5, 948.5,476.5" style="stroke-width: 0.975127; stroke-opacity: 1; stroke: rgb(80, 80, 80); fill: none;"></path><path class="link" marker-end="" d="M768.5,476.5, 948.5,476.5" style="stroke-width: 0.469383; stroke-opacity: 1; stroke: rgb(80, 80, 80); fill: none;"></path><path class="link" marker-end="" d="M768.5,516.5, 948.5,476.5" style="stroke-width: 0.992068; stroke-opacity: 1; stroke: rgb(80, 80, 80); fill: none;"></path><path class="link" marker-end="" d="M768.5,556.5, 948.5,476.5" style="stroke-width: 0.566935; stroke-opacity: 1; stroke: rgb(80, 80, 80); fill: none;"></path><path class="link" marker-end="" d="M768.5,596.5, 948.5,476.5" style="stroke-width: 0.814015; stroke-opacity: 1; stroke: rgb(80, 80, 80); fill: none;"></path><path class="link" marker-end="" d="M588.5,376.5, 768.5,316.5" style="stroke-width: 0.746755; stroke-opacity: 1; stroke: rgb(80, 80, 80); fill: none;"></path><path class="link" marker-end="" d="M588.5,416.5, 768.5,316.5" style="stroke-width: 0.995949; stroke-opacity: 1; stroke: rgb(80, 80, 80); fill: none;"></path><path class="link" marker-end="" d="M588.5,456.5, 768.5,316.5" style="stroke-width: 0.448238; stroke-opacity: 1; stroke: rgb(80, 80, 80); fill: none;"></path><path class="link" marker-end="" d="M588.5,496.5, 768.5,316.5" style="stroke-width: 0.501116; stroke-opacity: 1; stroke: rgb(80, 80, 80); fill: none;"></path><path class="link" marker-end="" d="M588.5,536.5, 768.5,316.5" style="stroke-width: 0.883749; stroke-opacity: 1; stroke: rgb(80, 80, 80); fill: none;"></path><circle r="10" class="node" id="0_0" cx="588.5" cy="376.5" style="fill: rgb(255, 255, 255); stroke: rgb(51, 51, 51);"></circle><circle r="10" class="node" id="0_1" cx="588.5" cy="416.5" style="fill: rgb(255, 255, 255); stroke: rgb(51, 51, 51);"></circle><circle r="10" class="node" id="0_2" cx="588.5" cy="456.5" style="fill: rgb(255, 255, 255); stroke: rgb(51, 51, 51);"></circle><circle r="10" class="node" id="0_3" cx="588.5" cy="496.5" style="fill: rgb(255, 255, 255); stroke: rgb(51, 51, 51);"></circle><circle r="10" class="node" id="0_4" cx="588.5" cy="536.5" style="fill: rgb(255, 255, 255); stroke: rgb(51, 51, 51);"></circle><circle r="10" class="node" id="1_0" cx="768.5" cy="316.5" style="fill: rgb(255, 255, 255); stroke: rgb(51, 51, 51);"></circle><circle r="10" class="node" id="1_1" cx="768.5" cy="356.5" style="fill: rgb(255, 255, 255); stroke: rgb(51, 51, 51);"></circle><circle r="10" class="node" id="1_2" cx="768.5" cy="396.5" style="fill: rgb(255, 255, 255); stroke: rgb(51, 51, 51);"></circle><circle r="10" class="node" id="1_3" cx="768.5" cy="436.5" style="fill: rgb(255, 255, 255); stroke: rgb(51, 51, 51);"></circle><circle r="10" class="node" id="1_4" cx="768.5" cy="476.5" style="fill: rgb(255, 255, 255); stroke: rgb(51, 51, 51);"></circle><circle r="10" class="node" id="1_5" cx="768.5" cy="516.5" style="fill: rgb(255, 255, 255); stroke: rgb(51, 51, 51);"></circle><circle r="10" class="node" id="1_6" cx="768.5" cy="556.5" style="fill: rgb(255, 255, 255); stroke: rgb(51, 51, 51);"></circle><circle r="10" class="node" id="1_7" cx="768.5" cy="596.5" style="fill: rgb(255, 255, 255); stroke: rgb(51, 51, 51);"></circle><circle r="10" class="node" id="2_0" cx="948.5" cy="436.5" style="fill: rgb(255, 255, 255); stroke: rgb(51, 51, 51);"></circle><text class="text" dy=".35em" x="553.5" y="636.5" style="font-size: 12px;"></text><text class="text" dy=".35em" x="733.5" y="636.5" style="font-size: 12px;"></text><text class="text" dy=".35em" x="913.5" y="636.5" style="font-size: 12px;"></text><circle r="10" class="node" id="2_1" cx="948.5" cy="476.5" style="fill: rgb(255, 255, 255); stroke: rgb(51, 51, 51);"></circle></g><defs><marker id="arrow" viewBox="0 -5 10 10" markerWidth="7" markerHeight="7" orient="auto" refX="40"><path d="M0,-5L10,0L0,5" style="stroke: rgb(80, 80, 80); fill: none;"></path></marker></defs></svg>